<?xml version="1.0" encoding="UTF-8" standalone="no"?>
<!DOCTYPE svg PUBLIC "-//W3C//DTD SVG 1.1//EN"
 "http://www.w3.org/Graphics/SVG/1.1/DTD/svg11.dtd">
<!-- Generated by graphviz version 2.47.0 (20210316.0004)
 -->
<!-- Title: dbml Pages: 1 -->
<svg width="1969pt" height="1140pt"
 viewBox="0.00 0.00 1969.39 1140.20" xmlns="http://www.w3.org/2000/svg" xmlns:xlink="http://www.w3.org/1999/xlink">
<g id="graph0" class="graph" transform="scale(1 1) rotate(0) translate(4 1136.2)">
<title>dbml</title>
<!-- Car -->
<g id="Car" class="node">
<title>Car</title>
<ellipse fill="none" stroke="black" stroke-width="0" cx="949.58" cy="-832.39" rx="263.09" ry="299.63"/>
<polygon fill="#1d71b8" stroke="transparent" points="765.58,-982.39 765.58,-1042.39 1133.58,-1042.39 1133.58,-982.39 765.58,-982.39"/>
<polygon fill="none" stroke="#29235c" points="765.58,-982.39 765.58,-1042.39 1133.58,-1042.39 1133.58,-982.39 765.58,-982.39"/>
<text text-anchor="start" x="861.56" y="-1003.59" font-family="Helvetica,sans-Serif" font-weight="bold" font-size="32.00" fill="#ffffff"> &#160;&#160;&#160;&#160;&#160;&#160;Car &#160;&#160;&#160;&#160;&#160;&#160;</text>
<polygon fill="#e7e2dd" stroke="transparent" points="765.58,-922.39 765.58,-982.39 1133.58,-982.39 1133.58,-922.39 765.58,-922.39"/>
<polygon fill="none" stroke="#29235c" points="765.58,-922.39 765.58,-982.39 1133.58,-982.39 1133.58,-922.39 765.58,-922.39"/>
<text text-anchor="start" x="776.58" y="-943.59" font-family="Helvetica,sans-Serif" font-weight="bold" font-size="32.00" fill="#29235c">id</text>
<text text-anchor="start" x="801.47" y="-943.59" font-family="Helvetica,sans-Serif" font-size="32.00" fill="#29235c"> &#160;&#160;&#160;</text>
<text text-anchor="start" x="980.36" y="-943.59" font-family="Helvetica,sans-Serif" font-style="italic" font-size="32.00" fill="#29235c">INTEGER</text>
<polygon fill="#e7e2dd" stroke="transparent" points="765.58,-862.39 765.58,-922.39 1133.58,-922.39 1133.58,-862.39 765.58,-862.39"/>
<polygon fill="none" stroke="#29235c" points="765.58,-862.39 765.58,-922.39 1133.58,-922.39 1133.58,-862.39 765.58,-862.39"/>
<text text-anchor="start" x="776.58" y="-882.59" font-family="Helvetica,sans-Serif" font-size="32.00" fill="#29235c">make &#160;&#160;&#160;</text>
<text text-anchor="start" x="966.16" y="-883.59" font-family="Helvetica,sans-Serif" font-style="italic" font-size="32.00" fill="#29235c">VARCHAR</text>
<polygon fill="#e7e2dd" stroke="transparent" points="765.58,-802.39 765.58,-862.39 1133.58,-862.39 1133.58,-802.39 765.58,-802.39"/>
<polygon fill="none" stroke="#29235c" points="765.58,-802.39 765.58,-862.39 1133.58,-862.39 1133.58,-802.39 765.58,-802.39"/>
<text text-anchor="start" x="776.58" y="-822.59" font-family="Helvetica,sans-Serif" font-size="32.00" fill="#29235c">model &#160;&#160;&#160;</text>
<text text-anchor="start" x="966.16" y="-823.59" font-family="Helvetica,sans-Serif" font-style="italic" font-size="32.00" fill="#29235c">VARCHAR</text>
<polygon fill="#e7e2dd" stroke="transparent" points="765.58,-742.39 765.58,-802.39 1133.58,-802.39 1133.58,-742.39 765.58,-742.39"/>
<polygon fill="none" stroke="#29235c" points="765.58,-742.39 765.58,-802.39 1133.58,-802.39 1133.58,-742.39 765.58,-742.39"/>
<text text-anchor="start" x="776.58" y="-762.59" font-family="Helvetica,sans-Serif" font-size="32.00" fill="#29235c">year &#160;&#160;&#160;</text>
<text text-anchor="start" x="980.36" y="-763.59" font-family="Helvetica,sans-Serif" font-style="italic" font-size="32.00" fill="#29235c">INTEGER</text>
<polygon fill="#e7e2dd" stroke="transparent" points="765.58,-682.39 765.58,-742.39 1133.58,-742.39 1133.58,-682.39 765.58,-682.39"/>
<polygon fill="none" stroke="#29235c" points="765.58,-682.39 765.58,-742.39 1133.58,-742.39 1133.58,-682.39 765.58,-682.39"/>
<text text-anchor="start" x="776.45" y="-702.59" font-family="Helvetica,sans-Serif" font-size="32.00" fill="#29235c">description &#160;&#160;&#160;</text>
<text text-anchor="start" x="966.37" y="-703.59" font-family="Helvetica,sans-Serif" font-style="italic" font-size="32.00" fill="#29235c">VARCHAR</text>
<polygon fill="#e7e2dd" stroke="transparent" points="765.58,-622.39 765.58,-682.39 1133.58,-682.39 1133.58,-622.39 765.58,-622.39"/>
<polygon fill="none" stroke="#29235c" points="765.58,-622.39 765.58,-682.39 1133.58,-682.39 1133.58,-622.39 765.58,-622.39"/>
<text text-anchor="start" x="776.58" y="-642.59" font-family="Helvetica,sans-Serif" font-size="32.00" fill="#29235c">dealer_id &#160;&#160;&#160;</text>
<text text-anchor="start" x="980.36" y="-643.59" font-family="Helvetica,sans-Serif" font-style="italic" font-size="32.00" fill="#29235c">INTEGER</text>
<polygon fill="none" stroke="#29235c" stroke-width="2" points="764.58,-621.39 764.58,-1043.39 1134.58,-1043.39 1134.58,-621.39 764.58,-621.39"/>
</g>
<!-- Dealer -->
<g id="Dealer" class="node">
<title>Dealer</title>
<ellipse fill="none" stroke="black" stroke-width="0" cx="1646.02" cy="-832.39" rx="315.24" ry="299.63"/>
<polygon fill="#1d71b8" stroke="transparent" points="1425.02,-982.39 1425.02,-1042.39 1867.02,-1042.39 1867.02,-982.39 1425.02,-982.39"/>
<polygon fill="none" stroke="#29235c" points="1425.02,-982.39 1425.02,-1042.39 1867.02,-1042.39 1867.02,-982.39 1425.02,-982.39"/>
<text text-anchor="start" x="1536.66" y="-1003.59" font-family="Helvetica,sans-Serif" font-weight="bold" font-size="32.00" fill="#ffffff"> &#160;&#160;&#160;&#160;&#160;&#160;Dealer &#160;&#160;&#160;&#160;&#160;&#160;</text>
<polygon fill="#e7e2dd" stroke="transparent" points="1425.02,-922.39 1425.02,-982.39 1867.02,-982.39 1867.02,-922.39 1425.02,-922.39"/>
<polygon fill="none" stroke="#29235c" points="1425.02,-922.39 1425.02,-982.39 1867.02,-982.39 1867.02,-922.39 1425.02,-922.39"/>
<text text-anchor="start" x="1436.02" y="-943.59" font-family="Helvetica,sans-Serif" font-weight="bold" font-size="32.00" fill="#29235c">id</text>
<text text-anchor="start" x="1460.91" y="-943.59" font-family="Helvetica,sans-Serif" font-size="32.00" fill="#29235c"> &#160;&#160;&#160;</text>
<text text-anchor="start" x="1713.8" y="-943.59" font-family="Helvetica,sans-Serif" font-style="italic" font-size="32.00" fill="#29235c">INTEGER</text>
<polygon fill="#e7e2dd" stroke="transparent" points="1425.02,-862.39 1425.02,-922.39 1867.02,-922.39 1867.02,-862.39 1425.02,-862.39"/>
<polygon fill="none" stroke="#29235c" points="1425.02,-862.39 1425.02,-922.39 1867.02,-922.39 1867.02,-862.39 1425.02,-862.39"/>
<text text-anchor="start" x="1436.02" y="-882.59" font-family="Helvetica,sans-Serif" font-size="32.00" fill="#29235c">name &#160;&#160;&#160;</text>
<text text-anchor="start" x="1699.59" y="-883.59" font-family="Helvetica,sans-Serif" font-style="italic" font-size="32.00" fill="#29235c">VARCHAR</text>
<polygon fill="#e7e2dd" stroke="transparent" points="1425.02,-802.39 1425.02,-862.39 1867.02,-862.39 1867.02,-802.39 1425.02,-802.39"/>
<polygon fill="none" stroke="#29235c" points="1425.02,-802.39 1425.02,-862.39 1867.02,-862.39 1867.02,-802.39 1425.02,-802.39"/>
<text text-anchor="start" x="1436.02" y="-822.59" font-family="Helvetica,sans-Serif" font-size="32.00" fill="#29235c">address &#160;&#160;&#160;</text>
<text text-anchor="start" x="1699.59" y="-823.59" font-family="Helvetica,sans-Serif" font-style="italic" font-size="32.00" fill="#29235c">VARCHAR</text>
<polygon fill="#e7e2dd" stroke="transparent" points="1425.02,-742.39 1425.02,-802.39 1867.02,-802.39 1867.02,-742.39 1425.02,-742.39"/>
<polygon fill="none" stroke="#29235c" points="1425.02,-742.39 1425.02,-802.39 1867.02,-802.39 1867.02,-742.39 1425.02,-742.39"/>
<text text-anchor="start" x="1435.53" y="-762.59" font-family="Helvetica,sans-Serif" font-size="32.00" fill="#29235c">contact_number &#160;&#160;&#160;</text>
<text text-anchor="start" x="1699.81" y="-763.59" font-family="Helvetica,sans-Serif" font-style="italic" font-size="32.00" fill="#29235c">VARCHAR</text>
<polygon fill="#e7e2dd" stroke="transparent" points="1425.02,-682.39 1425.02,-742.39 1867.02,-742.39 1867.02,-682.39 1425.02,-682.39"/>
<polygon fill="none" stroke="#29235c" points="1425.02,-682.39 1425.02,-742.39 1867.02,-742.39 1867.02,-682.39 1425.02,-682.39"/>
<text text-anchor="start" x="1436.02" y="-702.59" font-family="Helvetica,sans-Serif" font-size="32.00" fill="#29235c">stock_limit &#160;&#160;&#160;</text>
<text text-anchor="start" x="1713.8" y="-703.59" font-family="Helvetica,sans-Serif" font-style="italic" font-size="32.00" fill="#29235c">INTEGER</text>
<polygon fill="#e7e2dd" stroke="transparent" points="1425.02,-622.39 1425.02,-682.39 1867.02,-682.39 1867.02,-622.39 1425.02,-622.39"/>
<polygon fill="none" stroke="#29235c" points="1425.02,-622.39 1425.02,-682.39 1867.02,-682.39 1867.02,-622.39 1425.02,-622.39"/>
<text text-anchor="start" x="1436.02" y="-642.59" font-family="Helvetica,sans-Serif" font-size="32.00" fill="#29235c">inventory_total &#160;&#160;&#160;</text>
<text text-anchor="start" x="1713.8" y="-643.59" font-family="Helvetica,sans-Serif" font-style="italic" font-size="32.00" fill="#29235c">INTEGER</text>
<polygon fill="none" stroke="#29235c" stroke-width="2" points="1424.02,-621.39 1424.02,-1043.39 1868.02,-1043.39 1868.02,-621.39 1424.02,-621.39"/>
</g>
<!-- Car&#45;&gt;Dealer -->
<!-- Car&#45;&gt;Dealer -->
<g id="edge2" class="edge">
<title>Car:e&#45;&gt;Dealer:w</title>
<path fill="none" stroke="#29235c" stroke-width="3" d="M1134.58,-652.39C1316.42,-652.39 1241.67,-941.36 1413.98,-952.08"/>
<polygon fill="#29235c" stroke="#29235c" stroke-width="3" points="1413.92,-955.58 1424.02,-952.39 1414.13,-948.58 1413.92,-955.58"/>
<text text-anchor="middle" x="1417.8" y="-961.99" font-family="Helvetica,sans-Serif" font-size="32.00" fill="#29235c">*</text>
<text text-anchor="middle" x="1143.48" y="-661.99" font-family="Helvetica,sans-Serif" font-size="32.00" fill="#29235c">1</text>
</g>
<!-- Customer -->
<g id="Customer" class="node">
<title>Customer</title>
<ellipse fill="none" stroke="black" stroke-width="0" cx="949.58" cy="-257.39" rx="345.14" ry="257.27"/>
<polygon fill="#1d71b8" stroke="transparent" points="707.58,-377.39 707.58,-437.39 1191.58,-437.39 1191.58,-377.39 707.58,-377.39"/>
<polygon fill="none" stroke="#29235c" points="707.58,-377.39 707.58,-437.39 1191.58,-437.39 1191.58,-377.39 707.58,-377.39"/>
<text text-anchor="start" x="818" y="-398.59" font-family="Helvetica,sans-Serif" font-weight="bold" font-size="32.00" fill="#ffffff"> &#160;&#160;&#160;&#160;&#160;&#160;Customer &#160;&#160;&#160;&#160;&#160;&#160;</text>
<polygon fill="#e7e2dd" stroke="transparent" points="707.58,-317.39 707.58,-377.39 1191.58,-377.39 1191.58,-317.39 707.58,-317.39"/>
<polygon fill="none" stroke="#29235c" points="707.58,-317.39 707.58,-377.39 1191.58,-377.39 1191.58,-317.39 707.58,-317.39"/>
<text text-anchor="start" x="718.58" y="-338.59" font-family="Helvetica,sans-Serif" font-weight="bold" font-size="32.00" fill="#29235c">id</text>
<text text-anchor="start" x="743.47" y="-338.59" font-family="Helvetica,sans-Serif" font-size="32.00" fill="#29235c"> &#160;&#160;&#160;</text>
<text text-anchor="start" x="1038.36" y="-338.59" font-family="Helvetica,sans-Serif" font-style="italic" font-size="32.00" fill="#29235c">INTEGER</text>
<polygon fill="#e7e2dd" stroke="transparent" points="707.58,-257.39 707.58,-317.39 1191.58,-317.39 1191.58,-257.39 707.58,-257.39"/>
<polygon fill="none" stroke="#29235c" points="707.58,-257.39 707.58,-317.39 1191.58,-317.39 1191.58,-257.39 707.58,-257.39"/>
<text text-anchor="start" x="718.58" y="-277.59" font-family="Helvetica,sans-Serif" font-size="32.00" fill="#29235c">name &#160;&#160;&#160;</text>
<text text-anchor="start" x="1024.16" y="-278.59" font-family="Helvetica,sans-Serif" font-style="italic" font-size="32.00" fill="#29235c">VARCHAR</text>
<polygon fill="#e7e2dd" stroke="transparent" points="707.58,-197.39 707.58,-257.39 1191.58,-257.39 1191.58,-197.39 707.58,-197.39"/>
<polygon fill="none" stroke="#29235c" points="707.58,-197.39 707.58,-257.39 1191.58,-257.39 1191.58,-197.39 707.58,-197.39"/>
<text text-anchor="start" x="718.58" y="-217.59" font-family="Helvetica,sans-Serif" font-size="32.00" fill="#29235c">email &#160;&#160;&#160;</text>
<text text-anchor="start" x="1024.16" y="-218.59" font-family="Helvetica,sans-Serif" font-style="italic" font-size="32.00" fill="#29235c">VARCHAR</text>
<polygon fill="#e7e2dd" stroke="transparent" points="707.58,-137.39 707.58,-197.39 1191.58,-197.39 1191.58,-137.39 707.58,-137.39"/>
<polygon fill="none" stroke="#29235c" points="707.58,-137.39 707.58,-197.39 1191.58,-197.39 1191.58,-137.39 707.58,-137.39"/>
<text text-anchor="start" x="718.58" y="-157.59" font-family="Helvetica,sans-Serif" font-size="32.00" fill="#29235c">phone &#160;&#160;&#160;</text>
<text text-anchor="start" x="1024.16" y="-158.59" font-family="Helvetica,sans-Serif" font-style="italic" font-size="32.00" fill="#29235c">VARCHAR</text>
<polygon fill="#e7e2dd" stroke="transparent" points="707.58,-77.39 707.58,-137.39 1191.58,-137.39 1191.58,-77.39 707.58,-77.39"/>
<polygon fill="none" stroke="#29235c" points="707.58,-77.39 707.58,-137.39 1191.58,-137.39 1191.58,-77.39 707.58,-77.39"/>
<text text-anchor="start" x="718.52" y="-97.59" font-family="Helvetica,sans-Serif" font-size="32.00" fill="#29235c">unpaid_sales_count &#160;&#160;&#160;</text>
<text text-anchor="start" x="1038.47" y="-98.59" font-family="Helvetica,sans-Serif" font-style="italic" font-size="32.00" fill="#29235c">INTEGER</text>
<polygon fill="none" stroke="#29235c" stroke-width="2" points="706.58,-76.39 706.58,-438.39 1192.58,-438.39 1192.58,-76.39 706.58,-76.39"/>
</g>
<!-- Inventory -->
<g id="Inventory" class="node">
<title>Inventory</title>
<ellipse fill="none" stroke="black" stroke-width="0" cx="284.26" cy="-892.39" rx="284.01" ry="214.92"/>
<polygon fill="#1d71b8" stroke="transparent" points="85.26,-982.39 85.26,-1042.39 483.26,-1042.39 483.26,-982.39 85.26,-982.39"/>
<polygon fill="none" stroke="#29235c" points="85.26,-982.39 85.26,-1042.39 483.26,-1042.39 483.26,-982.39 85.26,-982.39"/>
<text text-anchor="start" x="156.21" y="-1003.59" font-family="Helvetica,sans-Serif" font-weight="bold" font-size="32.00" fill="#ffffff"> &#160;&#160;&#160;&#160;&#160;&#160;Inventory &#160;&#160;&#160;&#160;&#160;&#160;</text>
<polygon fill="#e7e2dd" stroke="transparent" points="85.26,-922.39 85.26,-982.39 483.26,-982.39 483.26,-922.39 85.26,-922.39"/>
<polygon fill="none" stroke="#29235c" points="85.26,-922.39 85.26,-982.39 483.26,-982.39 483.26,-922.39 85.26,-922.39"/>
<text text-anchor="start" x="96.26" y="-943.59" font-family="Helvetica,sans-Serif" font-weight="bold" font-size="32.00" fill="#29235c">id</text>
<text text-anchor="start" x="121.15" y="-943.59" font-family="Helvetica,sans-Serif" font-size="32.00" fill="#29235c"> &#160;&#160;&#160;</text>
<text text-anchor="start" x="330.04" y="-943.59" font-family="Helvetica,sans-Serif" font-style="italic" font-size="32.00" fill="#29235c">INTEGER</text>
<polygon fill="#e7e2dd" stroke="transparent" points="85.26,-862.39 85.26,-922.39 483.26,-922.39 483.26,-862.39 85.26,-862.39"/>
<polygon fill="none" stroke="#29235c" points="85.26,-862.39 85.26,-922.39 483.26,-922.39 483.26,-862.39 85.26,-862.39"/>
<text text-anchor="start" x="96.26" y="-882.59" font-family="Helvetica,sans-Serif" font-size="32.00" fill="#29235c">car_id &#160;&#160;&#160;</text>
<text text-anchor="start" x="330.04" y="-883.59" font-family="Helvetica,sans-Serif" font-style="italic" font-size="32.00" fill="#29235c">INTEGER</text>
<polygon fill="#e7e2dd" stroke="transparent" points="85.26,-802.39 85.26,-862.39 483.26,-862.39 483.26,-802.39 85.26,-802.39"/>
<polygon fill="none" stroke="#29235c" points="85.26,-802.39 85.26,-862.39 483.26,-862.39 483.26,-802.39 85.26,-802.39"/>
<text text-anchor="start" x="95.89" y="-822.59" font-family="Helvetica,sans-Serif" font-size="32.00" fill="#29235c">stock_amount &#160;&#160;&#160;</text>
<text text-anchor="start" x="330.15" y="-823.59" font-family="Helvetica,sans-Serif" font-style="italic" font-size="32.00" fill="#29235c">INTEGER</text>
<polygon fill="#e7e2dd" stroke="transparent" points="85.26,-742.39 85.26,-802.39 483.26,-802.39 483.26,-742.39 85.26,-742.39"/>
<polygon fill="none" stroke="#29235c" points="85.26,-742.39 85.26,-802.39 483.26,-802.39 483.26,-742.39 85.26,-742.39"/>
<text text-anchor="start" x="96.26" y="-762.59" font-family="Helvetica,sans-Serif" font-size="32.00" fill="#29235c">location &#160;&#160;&#160;</text>
<text text-anchor="start" x="315.83" y="-763.59" font-family="Helvetica,sans-Serif" font-style="italic" font-size="32.00" fill="#29235c">VARCHAR</text>
<polygon fill="none" stroke="#29235c" stroke-width="2" points="84.26,-741.39 84.26,-1043.39 484.26,-1043.39 484.26,-741.39 84.26,-741.39"/>
</g>
<!-- Inventory&#45;&gt;Car -->
<!-- Inventory&#45;&gt;Car -->
<g id="edge4" class="edge">
<title>Inventory:e&#45;&gt;Car:w</title>
<path fill="none" stroke="#29235c" stroke-width="3" d="M484.26,-892.39C608.18,-892.39 635.7,-949.15 754.35,-952.25"/>
<polygon fill="#29235c" stroke="#29235c" stroke-width="3" points="754.54,-955.76 764.58,-952.39 754.63,-948.76 754.54,-955.76"/>
<text text-anchor="middle" x="770.8" y="-961.99" font-family="Helvetica,sans-Serif" font-size="32.00" fill="#29235c">*</text>
<text text-anchor="middle" x="475.36" y="-901.99" font-family="Helvetica,sans-Serif" font-size="32.00" fill="#29235c">1</text>
</g>
<!-- Sale -->
<g id="Sale" class="node">
<title>Sale</title>
<ellipse fill="none" stroke="black" stroke-width="0" cx="284.26" cy="-353.39" rx="266.66" ry="299.63"/>
<polygon fill="#1d71b8" stroke="transparent" points="98.26,-503.39 98.26,-563.39 471.26,-563.39 471.26,-503.39 98.26,-503.39"/>
<polygon fill="none" stroke="#29235c" points="98.26,-503.39 98.26,-563.39 471.26,-563.39 471.26,-503.39 98.26,-503.39"/>
<text text-anchor="start" x="190.5" y="-524.59" font-family="Helvetica,sans-Serif" font-weight="bold" font-size="32.00" fill="#ffffff"> &#160;&#160;&#160;&#160;&#160;&#160;Sale &#160;&#160;&#160;&#160;&#160;&#160;</text>
<polygon fill="#e7e2dd" stroke="transparent" points="98.26,-443.39 98.26,-503.39 471.26,-503.39 471.26,-443.39 98.26,-443.39"/>
<polygon fill="none" stroke="#29235c" points="98.26,-443.39 98.26,-503.39 471.26,-503.39 471.26,-443.39 98.26,-443.39"/>
<text text-anchor="start" x="109.26" y="-464.59" font-family="Helvetica,sans-Serif" font-weight="bold" font-size="32.00" fill="#29235c">id</text>
<text text-anchor="start" x="134.15" y="-464.59" font-family="Helvetica,sans-Serif" font-size="32.00" fill="#29235c"> &#160;&#160;&#160;</text>
<text text-anchor="start" x="318.04" y="-464.59" font-family="Helvetica,sans-Serif" font-style="italic" font-size="32.00" fill="#29235c">INTEGER</text>
<polygon fill="#e7e2dd" stroke="transparent" points="98.26,-383.39 98.26,-443.39 471.26,-443.39 471.26,-383.39 98.26,-383.39"/>
<polygon fill="none" stroke="#29235c" points="98.26,-383.39 98.26,-443.39 471.26,-443.39 471.26,-383.39 98.26,-383.39"/>
<text text-anchor="start" x="109.26" y="-403.59" font-family="Helvetica,sans-Serif" font-size="32.00" fill="#29235c">car_id &#160;&#160;&#160;</text>
<text text-anchor="start" x="318.04" y="-404.59" font-family="Helvetica,sans-Serif" font-style="italic" font-size="32.00" fill="#29235c">INTEGER</text>
<polygon fill="#e7e2dd" stroke="transparent" points="98.26,-323.39 98.26,-383.39 471.26,-383.39 471.26,-323.39 98.26,-323.39"/>
<polygon fill="none" stroke="#29235c" points="98.26,-323.39 98.26,-383.39 471.26,-383.39 471.26,-323.39 98.26,-323.39"/>
<text text-anchor="start" x="108.85" y="-343.59" font-family="Helvetica,sans-Serif" font-size="32.00" fill="#29235c">customer_id &#160;&#160;&#160;</text>
<text text-anchor="start" x="318.15" y="-344.59" font-family="Helvetica,sans-Serif" font-style="italic" font-size="32.00" fill="#29235c">INTEGER</text>
<polygon fill="#e7e2dd" stroke="transparent" points="98.26,-263.39 98.26,-323.39 471.26,-323.39 471.26,-263.39 98.26,-263.39"/>
<polygon fill="none" stroke="#29235c" points="98.26,-263.39 98.26,-323.39 471.26,-323.39 471.26,-263.39 98.26,-263.39"/>
<text text-anchor="start" x="109.26" y="-283.59" font-family="Helvetica,sans-Serif" font-size="32.00" fill="#29235c">sale_date &#160;&#160;&#160;</text>
<text text-anchor="start" x="298.49" y="-284.59" font-family="Helvetica,sans-Serif" font-style="italic" font-size="32.00" fill="#29235c">DATETIME</text>
<polygon fill="#e7e2dd" stroke="transparent" points="98.26,-203.39 98.26,-263.39 471.26,-263.39 471.26,-203.39 98.26,-203.39"/>
<polygon fill="none" stroke="#29235c" points="98.26,-203.39 98.26,-263.39 471.26,-263.39 471.26,-203.39 98.26,-203.39"/>
<text text-anchor="start" x="109.26" y="-223.59" font-family="Helvetica,sans-Serif" font-size="32.00" fill="#29235c">amount &#160;&#160;&#160;</text>
<text text-anchor="start" x="318.04" y="-224.59" font-family="Helvetica,sans-Serif" font-style="italic" font-size="32.00" fill="#29235c">INTEGER</text>
<polygon fill="#e7e2dd" stroke="transparent" points="98.26,-143.39 98.26,-203.39 471.26,-203.39 471.26,-143.39 98.26,-143.39"/>
<polygon fill="none" stroke="#29235c" points="98.26,-143.39 98.26,-203.39 471.26,-203.39 471.26,-143.39 98.26,-143.39"/>
<text text-anchor="start" x="109.26" y="-163.59" font-family="Helvetica,sans-Serif" font-size="32.00" fill="#29235c">is_paid &#160;&#160;&#160;</text>
<text text-anchor="start" x="305.56" y="-164.59" font-family="Helvetica,sans-Serif" font-style="italic" font-size="32.00" fill="#29235c">BOOLEAN</text>
<polygon fill="none" stroke="#29235c" stroke-width="2" points="96.76,-142.39 96.76,-564.39 471.76,-564.39 471.76,-142.39 96.76,-142.39"/>
</g>
<!-- Sale&#45;&gt;Car -->
<!-- Sale&#45;&gt;Car -->
<g id="edge6" class="edge">
<title>Sale:e&#45;&gt;Car:w</title>
<path fill="none" stroke="#29235c" stroke-width="3" d="M472.26,-413.39C741.32,-413.39 498.39,-938.79 754.45,-952.13"/>
<polygon fill="#29235c" stroke="#29235c" stroke-width="3" points="754.5,-955.63 764.58,-952.39 754.67,-948.63 754.5,-955.63"/>
<text text-anchor="middle" x="770.8" y="-923.59" font-family="Helvetica,sans-Serif" font-size="32.00" fill="#29235c">*</text>
<text text-anchor="middle" x="463.36" y="-422.99" font-family="Helvetica,sans-Serif" font-size="32.00" fill="#29235c">1</text>
</g>
<!-- Sale&#45;&gt;Customer -->
<!-- Sale&#45;&gt;Customer -->
<g id="edge8" class="edge">
<title>Sale:e&#45;&gt;Customer:w</title>
<path fill="none" stroke="#29235c" stroke-width="3" d="M472.26,-353.39C572.98,-353.39 600.59,-347.78 696.46,-347.41"/>
<polygon fill="#29235c" stroke="#29235c" stroke-width="3" points="696.59,-350.91 706.58,-347.39 696.58,-343.91 696.59,-350.91"/>
<text text-anchor="middle" x="712.8" y="-356.99" font-family="Helvetica,sans-Serif" font-size="32.00" fill="#29235c">*</text>
<text text-anchor="middle" x="463.36" y="-362.99" font-family="Helvetica,sans-Serif" font-size="32.00" fill="#29235c">1</text>
</g>
</g>
</svg>
